<svg width="24" height="24" viewBox="0 0 24 24" fill="none" xmlns="http://www.w3.org/2000/svg">
<path fill-rule="evenodd" clip-rule="evenodd" d="M10.2356 13.8028H5.76257C4.78913 13.8028 4 13.0137 4 12.0402V12.0402C4 11.0668 4.78913 10.2777 5.76258 10.2777H10.2356V5.76435C10.2356 4.78993 11.0256 4 12 4V4C12.9744 4 13.7644 4.78993 13.7644 5.76435V10.2777H18.2374C19.2109 10.2777 20 11.0668 20 12.0402V12.0402C20 13.0137 19.2109 13.8028 18.2374 13.8028H13.7644V18.2357C13.7644 19.2101 12.9744 20 12 20V20C11.0256 20 10.2356 19.2101 10.2356 18.2356V13.8028Z" fill="#3B6FC8"/>
</svg>
