<svg width="24" height="24" viewBox="0 0 24 24" fill="none" xmlns="http://www.w3.org/2000/svg">
<path fill-rule="evenodd" clip-rule="evenodd" d="M12.7877 16.4931C12.3873 17.0049 11.6127 17.0049 11.2123 16.4931L8.86416 13.4911C8.35067 12.8347 8.81839 11.875 9.65182 11.875H10.9V3C10.9 2.44772 11.3477 2 11.9 2H12.1C12.6523 2 13.1 2.44772 13.1 3V11.875H14.3482C15.1816 11.875 15.6493 12.8347 15.1358 13.4911L12.7877 16.4931ZM4.2 19.75H19.8V12.875C19.8 12.3227 20.2477 11.875 20.8 11.875H21C21.5523 11.875 22 12.3227 22 12.875V19.75C22 20.9909 21.0133 22 19.8 22H4.2C2.9867 22 2 20.9909 2 19.75V12.875C2 12.3227 2.44772 11.875 3 11.875H3.2C3.75228 11.875 4.2 12.3227 4.2 12.875V19.75Z" fill="#3B6FC8"/>
</svg>
