<svg width="181" height="28" viewBox="0 0 181 28" fill="none" xmlns="http://www.w3.org/2000/svg">
<path fill-rule="evenodd" clip-rule="evenodd" d="M16.1762 0.172791C22.9827 1.2529 27.9981 7.16915 27.9999 14.1203C28.0212 19.4454 25.0128 24.3107 20.2628 26.6333C20.2628 26.4826 20.2744 26.3553 20.2832 26.2586C20.2886 26.1993 20.2929 26.1516 20.2929 26.117C20.308 25.8588 20.3757 25.1299 20.4435 24.401C20.5112 23.6721 20.579 22.9432 20.594 22.685C20.5816 22.4416 20.5917 22.1976 20.6241 21.9561C20.6843 21.2272 20.7746 20.9842 20.9252 20.9235C21.2336 20.8205 21.5126 20.6433 21.738 20.4072C21.8658 20.2782 21.9937 20.19 22.1232 20.1005C22.3293 19.9583 22.5398 19.813 22.7616 19.496C22.9081 19.2382 23.0906 19.0029 23.3035 18.7975C23.506 18.6615 23.6973 18.5091 23.8755 18.3419C24.0476 18.1931 24.2403 18.0703 24.4475 17.9774C24.5067 17.9457 24.546 17.886 24.5521 17.8186C24.5581 17.7513 24.5301 17.6854 24.4776 17.6434C24.3564 17.5065 24.1764 17.4384 23.9959 17.4611C23.5856 17.4878 23.1949 17.6476 22.882 17.9167C22.6741 18.1181 22.4414 18.2916 22.1896 18.433C21.738 18.5849 21.5574 18.0989 21.5875 17.5826C21.5887 17.2429 21.6394 16.9052 21.738 16.5804C21.8549 16.25 21.9355 16.0664 22.008 15.9012C22.0289 15.8537 22.049 15.8078 22.0692 15.7603C22.1858 15.5205 22.2669 15.2647 22.31 15.0011C22.3732 14.7618 22.4365 14.4974 22.491 14.2695C22.5403 14.0634 22.5825 13.8871 22.6111 13.7862C22.7616 13.3306 22.3401 13.1788 22.1294 13.361C21.9718 13.5679 21.8589 13.8059 21.7982 14.0595C21.7151 14.2777 21.6227 14.468 21.5364 14.6458C21.4665 14.7899 21.4005 14.9259 21.3466 15.0618C21.2508 15.4044 21.13 15.7394 20.9854 16.0641C20.8951 16.2159 20.5639 16.2766 20.5639 16.1552C20.6047 15.8778 20.6651 15.6038 20.7445 15.3351C20.8373 14.9883 20.8878 14.6313 20.8951 14.2721C20.9252 13.8166 20.9854 13.2091 21.0155 13.0269C21.0755 12.8491 21.0147 12.6526 20.865 12.541C20.7724 12.477 20.6555 12.4604 20.5491 12.4962C20.4427 12.532 20.359 12.616 20.3231 12.7232C20.2811 12.8714 20.2098 13.2559 20.1501 13.578C20.1242 13.7179 20.1004 13.8461 20.0822 13.9381C19.9784 14.3379 19.8979 14.7435 19.8414 15.1529C19.8358 15.2003 19.8306 15.2458 19.8255 15.2896C19.7754 15.7232 19.7455 15.9813 19.6908 16.0641C19.6306 16.1552 19.4801 16.2463 19.4801 16.0337C19.5242 15.5998 19.5343 15.1632 19.5102 14.7277C19.4682 14.3678 19.4409 14.1111 19.418 13.8961C19.408 13.8027 19.3989 13.7171 19.3898 13.6343C19.3836 13.5779 19.3799 13.5162 19.3762 13.4531C19.3618 13.2108 19.3463 12.9473 19.1791 12.8751C18.9683 12.7839 18.7275 12.9054 18.6974 13.2091C18.677 13.4148 18.6842 13.6622 18.691 13.8948C18.6942 14.0058 18.6974 14.1133 18.6974 14.2114C18.6698 14.5447 18.6598 14.8793 18.6673 15.2137C18.6749 15.3291 18.6825 15.4347 18.6897 15.5336C18.7107 15.8251 18.7275 16.0576 18.7275 16.307C18.7275 16.6411 18.4565 16.7019 18.4264 16.4589C18.4018 16.1392 18.3412 15.8233 18.2458 15.5174C18.193 15.322 18.1402 15.0539 18.0934 14.8163C18.0601 14.6477 18.0299 14.4945 18.005 14.3936C17.9146 13.9077 17.4932 13.9684 17.4028 14.2114C17.3296 14.3961 17.3566 14.5584 17.3958 14.7938C17.421 14.9455 17.4513 15.1275 17.4631 15.3655C17.4903 15.6678 17.573 15.9763 17.6498 16.2629C17.7428 16.6098 17.8272 16.9246 17.7942 17.1574C17.7137 17.6391 17.6734 18.1268 17.6738 18.6152C17.6654 19.3353 17.7669 20.0524 17.9748 20.7412C17.9915 20.7715 18.0078 20.8006 18.0235 20.8288C18.1502 21.0553 18.2425 21.2203 18.2157 21.4094C18.1752 21.8291 18.1048 22.2452 18.005 22.6546C17.8845 23.2317 17.4631 25.7525 17.1319 27.757L16.2287 27.9393C16.2439 27.7168 16.2439 27.4935 16.2287 27.2711C16.2287 26.7851 15.8976 18.0078 15.7772 16.7018C15.704 16.1279 15.6839 15.5484 15.717 14.9707C15.6948 14.747 15.8033 14.5892 15.9582 14.3638C16.0136 14.2832 16.075 14.1939 16.1384 14.0899C16.5444 13.1849 16.8084 12.2218 16.9212 11.235C17.0047 10.5704 17.0349 9.90003 17.0115 9.23049C17.0115 8.90654 17.1742 8.50485 17.3534 8.06227C17.5103 7.67498 17.6798 7.25637 17.7641 6.83115C17.821 6.52122 17.8865 6.28505 17.9411 6.08819C18.0309 5.76419 18.0912 5.54671 18.0351 5.28221C17.9447 4.94813 17.3727 4.79627 17.162 5.43407C17.0067 5.93917 16.8259 6.43589 16.6201 6.92227C16.4523 7.32443 16.3213 7.74124 16.2287 8.16749C16.1384 8.47121 15.7772 8.38009 15.8374 7.89415C15.8684 7.64351 15.9155 7.41711 15.9662 7.17327C16.0138 6.94436 16.0646 6.70008 16.1083 6.40595C16.1577 6.07412 16.18 5.8148 16.2 5.58343C16.2166 5.39126 16.2315 5.21838 16.2589 5.03924C16.3191 4.64441 16.3793 4.1281 16.4094 3.67253C16.444 3.50963 16.3871 3.34071 16.2613 3.23281C16.1355 3.12491 15.9611 3.09549 15.8073 3.15622C15.5288 3.22644 15.4829 3.53117 15.4351 3.84798C15.4209 3.94224 15.4065 4.03756 15.3858 4.1281C15.2955 4.52293 15.2052 4.91776 15.0245 5.58593C14.907 6.16568 14.8465 6.75572 14.8439 7.34747C14.8138 7.65118 14.6332 7.46895 14.5429 7.34747C14.4821 7.26569 14.4895 7.03253 14.5008 6.67578C14.5063 6.50256 14.5127 6.30019 14.5127 6.07187C14.5127 5.67947 14.4747 5.32541 14.4414 5.01506C14.4155 4.77294 14.3923 4.55742 14.3923 4.37107C14.3923 3.94587 14.3321 3.00436 14.302 2.67028C14.2834 2.51443 14.1872 2.37899 14.0468 2.31127C13.9064 2.24355 13.7415 2.25295 13.6096 2.33619C13.3844 2.46201 13.2634 2.71833 13.3085 2.97399C13.3085 3.21696 13.3085 4.06736 13.2784 4.67479C13.2175 5.16895 13.2175 5.66882 13.2784 6.16298C13.3328 6.54537 13.3629 6.93085 13.3687 7.3171C13.3687 7.49932 12.9172 7.34747 12.8269 7.13487C12.7755 7.01402 12.7145 6.71653 12.6492 6.39859C12.5996 6.1572 12.5477 5.90402 12.4957 5.70741C12.4461 5.51974 12.3812 5.33721 12.3135 5.1471C12.217 4.87574 12.1149 4.58892 12.0441 4.24959C11.9803 3.90164 11.8688 3.56433 11.713 3.24733C11.4721 2.97399 10.87 3.09547 10.9603 3.76364C10.9728 3.88944 10.9956 4.0986 11.0223 4.34365C11.0601 4.69024 11.1057 5.10861 11.141 5.46444C11.1666 5.83622 11.2374 6.20342 11.3517 6.55781C11.5035 6.93747 11.6048 7.33577 11.6528 7.74229C11.709 8.2058 11.7191 8.67384 11.6829 9.13938C11.5925 9.83792 11.2915 10.5061 10.6894 10.172C10.3748 9.93618 10.0915 9.66059 9.84644 9.35198C9.46875 8.92387 8.96017 8.63527 8.40139 8.53195C8.15493 8.47489 7.89639 8.54294 7.70897 8.71418C7.63818 8.76814 7.59657 8.85246 7.59657 8.94196C7.59657 9.03147 7.63818 9.11579 7.70897 9.16975C7.97929 9.32121 8.22334 9.51612 8.43149 9.74681C8.73254 10.0809 8.97339 10.3239 9.12391 10.4757C9.23681 10.5896 9.2989 10.7035 9.50069 11.0736C9.56796 11.197 9.65075 11.3489 9.75612 11.5387C10.0205 12.0149 10.2848 12.2522 10.5417 12.4828C10.6944 12.6199 10.8445 12.7546 10.9904 12.9358C11.2717 13.2856 11.6198 13.5748 12.014 13.7862C12.2549 13.8773 12.285 14.2418 12.2549 15.244C12.2547 15.579 12.2346 15.9137 12.1946 16.2463C12.1538 16.7199 12.0991 18.4085 12.0588 19.655C12.0396 20.2467 12.0237 20.7387 12.014 20.9538C12.0051 21.1522 11.9855 21.7225 11.9609 22.4415C11.9025 24.1449 11.8155 26.6831 11.7732 27.0889C11.7344 27.3909 11.7243 27.696 11.7431 28C11.5294 27.9804 11.3282 27.9355 11.1235 27.8898C11.0109 27.8647 10.8972 27.8393 10.7797 27.8178C10.4485 25.8133 10.0271 23.2924 9.90665 22.7154C9.80683 22.306 9.7364 21.8898 9.69591 21.4702C9.67601 21.3296 9.73504 21.2156 9.81213 21.0668C9.85166 20.9904 9.89594 20.9049 9.93675 20.802C10.1447 20.1131 10.2462 19.396 10.2378 18.676C10.2396 18.1874 10.1993 17.6997 10.1174 17.2182C10.0844 16.9853 10.1688 16.6705 10.2618 16.3236C10.3386 16.037 10.4213 15.7285 10.4485 15.4263C10.4604 15.1878 10.4861 15.0054 10.5076 14.8536C10.5407 14.6187 10.5636 14.4566 10.5088 14.2721C10.4485 14.0292 9.99696 13.9684 9.90665 14.4544C9.84596 14.8329 9.76557 15.208 9.66581 15.5781C9.5731 15.8847 9.51256 16.2003 9.48518 16.5196C9.45507 16.7626 9.18412 16.7018 9.18412 16.3678C9.18412 16.2136 9.19694 16.066 9.21074 15.9069C9.22686 15.7212 9.24433 15.5198 9.24433 15.2744C9.24433 15.0236 9.23521 14.8372 9.22701 14.6697C9.22031 14.5329 9.21423 14.4087 9.21423 14.2721C9.2444 13.9387 9.2444 13.6033 9.21423 13.2699C9.18412 12.9358 8.97339 12.8143 8.73254 12.9358C8.54754 13.0291 8.54018 13.2658 8.53306 13.4944C8.53091 13.5634 8.52879 13.6317 8.52181 13.6951C8.50185 14.0615 8.46165 14.4265 8.40139 14.7885C8.37734 15.2239 8.3874 15.6606 8.43149 16.0944C8.43149 16.2781 8.3416 16.2124 8.2589 16.152C8.24588 16.1424 8.23304 16.1331 8.22076 16.1248C8.15489 16.0805 8.13706 15.8908 8.10888 15.5912C8.09842 15.4799 8.08653 15.3534 8.07023 15.2137C8.01367 14.8043 7.93325 14.3986 7.82939 13.9988C7.81116 13.9068 7.78741 13.7815 7.76148 13.6446C7.70178 13.3295 7.63053 12.9534 7.58855 12.7839C7.55837 12.6722 7.47484 12.5831 7.36595 12.5465C7.25706 12.5099 7.13724 12.5306 7.04665 12.6017C6.90965 12.7221 6.85145 12.91 6.89613 13.0877C6.92623 13.2699 6.98644 13.8773 7.01655 14.3329C7.0411 14.6904 7.09141 15.0457 7.16707 15.3959C7.2465 15.6646 7.30686 15.9386 7.3477 16.2159C7.3477 16.3374 7.01655 16.2767 6.92623 16.1248C6.87358 16.0363 6.80048 15.8136 6.7248 15.5831C6.67065 15.4181 6.61519 15.2492 6.56497 15.1225C6.51107 14.9866 6.44511 14.8507 6.37519 14.7066C6.28889 14.5287 6.19654 14.3384 6.11339 14.1203C6.05267 13.8666 5.93985 13.6286 5.78223 13.4217C5.6016 13.2395 5.18013 13.3914 5.30055 13.8469C5.36076 14.0595 5.51129 14.6366 5.6016 15.0618C5.64984 15.3241 5.73076 15.5792 5.84244 15.8211C5.99016 16.0775 6.10163 16.3535 6.1736 16.6411C6.27216 16.966 6.32288 17.3036 6.32413 17.6434C6.35423 18.1597 6.1736 18.676 5.72202 18.4938C5.46541 18.36 5.23165 18.1857 5.0296 17.9774C4.71393 17.713 4.32477 17.5539 3.91571 17.5219C3.73523 17.4992 3.5552 17.5673 3.43403 17.7041C3.37998 17.7452 3.35084 17.8116 3.35697 17.8796C3.3631 17.9476 3.40363 18.0076 3.46413 18.0382C3.67132 18.131 3.864 18.2538 4.03613 18.4026C4.17161 18.5089 4.2845 18.6001 4.37858 18.676C4.47266 18.7519 4.54792 18.8127 4.60813 18.8582C4.82098 19.0637 5.00347 19.2989 5.15002 19.5568C5.37416 19.8959 5.58671 20.0364 5.79485 20.1739C5.9222 20.258 6.0479 20.3411 6.1736 20.4679C6.40387 20.6979 6.68133 20.8741 6.98644 20.9842C7.16707 21.045 7.22728 21.2879 7.28749 22.0168C7.28749 22.0788 7.28749 22.1227 7.28824 22.1666C7.29005 22.2733 7.29627 22.3799 7.3176 22.7458C7.3333 23.0151 7.40636 23.8051 7.47693 24.5683C7.54163 25.2681 7.60425 25.9453 7.61865 26.1777C7.64926 26.3586 7.66936 26.5411 7.67886 26.7244C1.53131 23.5852 -1.43783 16.3998 0.679145 9.78484C2.79612 3.16992 9.36966 -0.907317 16.1762 0.172791ZM50.5 4.00002C49.1193 4.00002 48 5.1193 48 6.50001C48 7.88072 49.1193 9 50.5 9C51.8807 9 53 7.88072 53 6.50001C53.0025 5.83622 52.7399 5.19889 52.2705 4.72952C51.8011 4.26014 51.1638 3.99754 50.5 4.00002ZM71.9989 16.9336C71.9989 21.537 74.5327 23.9707 79.2988 23.9707V24H84.9698V20.5694H79.7814C77.5492 20.5694 76.8253 20.3056 76.7046 18.6636H85V15.233H76.7348C76.8554 13.591 77.6699 13.2978 79.8116 13.2978H84.9698V9.86728H79.2988C74.5327 9.86728 71.9989 12.3302 71.9989 16.9336ZM54.4126 9.86728L60.5663 23.9707H64.9101L71.3654 9.86728H66.72L62.8588 18.9275L59.2089 9.86728H54.4126ZM47.9271 9.86728V23.9707H52.3916V9.86728H47.9271ZM33.8099 21.9475C35.65 23.8241 37.6409 23.9707 40.2954 23.9707V24H45.6346V20.3349H40.597C39.0888 20.3349 37.9727 20.159 37.1884 19.25C36.6454 18.6343 36.6153 17.6373 36.6153 16.1127V5H32V16.2006C32 18.7515 32.3017 20.3935 33.8099 21.9475ZM158.322 16.8061C158.322 21.1863 161.334 24 166.002 24C170.64 24 173.652 21.1863 173.652 16.8061C173.652 12.426 170.67 9.58321 166.002 9.58321C161.334 9.58321 158.322 12.426 158.322 16.8061ZM162.779 16.8061C162.779 14.4565 163.954 13.0931 165.972 13.0931C168.02 13.0931 169.194 14.4565 169.194 16.8061C169.194 19.1557 167.99 20.5191 165.972 20.5191C163.954 20.5191 162.779 19.1557 162.779 16.8061ZM140.945 16.8061C140.945 21.1863 143.957 24 148.625 24C153.263 24 156.274 21.1863 156.274 16.8061C156.274 12.426 153.293 9.58321 148.625 9.58321C143.957 9.58321 140.945 12.426 140.945 16.8061ZM145.402 16.8061C145.402 14.4565 146.577 13.0931 148.595 13.0931C150.612 13.0931 151.817 14.4565 151.817 16.8061C151.817 19.1557 150.612 20.5191 148.595 20.5191C146.577 20.5191 145.402 19.1557 145.402 16.8061ZM176.573 5V23.7679V23.7969H181V5H176.573ZM133.777 15.4137V23.7679V23.7969H138.084V15.0366C138.084 11.4397 136.217 9.84427 132 9.84427H129.049V5H124.802V23.7679H129.049V13.3542H131.639C133.356 13.3542 133.777 13.7603 133.777 15.4137ZM111.039 22.0855C112.274 23.2748 113.9 23.7679 116.46 23.7679V23.7099H121.731V20.258H117.514C116.31 20.258 115.436 20.258 114.774 19.8809C113.75 19.3008 113.298 18.3435 113.298 16.8351C113.298 14.1374 114.292 13.2962 117.514 13.2962H121.731V9.81527H116.46C113.93 9.81527 112.304 10.3084 111.039 11.4977C109.684 12.774 108.901 14.7176 108.901 16.8641C108.865 18.8092 109.634 20.6881 111.039 22.0855ZM88.7529 19.9389V23.7679V23.855H99.625C104.353 23.855 106.552 21.9985 106.552 18.1115C106.552 14.2244 104.715 12.658 100.227 12.658H94.9569C92.9994 12.658 92.7584 11.7008 92.7584 10.9756C92.7584 9.49618 93.5415 8.88702 95.499 8.88702H105.618V5.02901H94.9268C90.1383 5.02901 88 6.82748 88 10.8885C88 14.6595 90.1082 16.4 94.5955 16.4H99.2636C101.131 16.4 101.763 16.8641 101.763 18.1985C101.763 19.3298 101.312 19.9389 98.9926 19.9389H88.7529Z" fill="white"/>
</svg>
