<svg width="149" height="108" viewBox="0 0 149 108" fill="none" xmlns="http://www.w3.org/2000/svg">
<path d="M41.0273 64.6523V64.6523V92.1797V92.1797C36.8334 92.1797 33.4336 88.9992 33.4336 85.0759V71.7562C33.4336 67.8328 36.8334 64.6523 41.0273 64.6523Z" fill="#F8B908"/>
<path d="M108.422 92.1797V92.1797V64.6523V64.6523C112.616 64.6523 116.016 67.8328 116.016 71.7562V85.0759C116.016 88.9992 112.616 92.1797 108.422 92.1797Z" fill="#F8B908"/>
<path d="M77.0315 19.0898H72.4178C54.5571 19.0898 40.0781 33.5535 40.0781 51.3954V92.3228C40.0781 95.9134 42.992 98.8242 46.5864 98.8242H102.863C106.457 98.8242 109.371 95.9134 109.371 92.3228V51.3954C109.371 33.5535 94.8921 19.0898 77.0315 19.0898Z" fill="#FCE39C"/>
<path d="M96.1909 24.7852C101.566 30.6818 104.537 38.3462 104.525 46.2899V87.0398C104.525 90.6148 101.599 93.513 97.9882 93.513H41.4613C40.9962 93.5125 40.5325 93.4628 40.0781 93.3647C40.9413 96.0506 43.4605 97.8748 46.307 97.875H102.834C106.444 97.875 109.371 94.9768 109.371 91.4018V50.6519C109.378 40.4456 104.486 30.8435 96.1909 24.7852Z" fill="#FBD56B"/>
<rect x="54.3164" y="66.5508" width="39.8672" height="22.7812" rx="5.86" fill="#CEA8EC"/>
<path d="M64.4385 43.0068L74.4613 32.9928L84.4841 43.0068L74.4613 53.0208L64.4385 43.0068Z" fill="#F8B908"/>
<path d="M74.5135 33.3281L72.2912 35.5043L79.358 42.4245L71.4023 50.2151L74.5135 53.2617L84.6914 43.2949L74.5135 33.3281V33.3281Z" fill="#EFE2F9"/>
<path d="M54.3164 73.1953V84.0786C54.3164 86.98 56.5902 89.332 59.3951 89.332H89.1049C90.4518 89.332 91.7436 88.7786 92.6961 87.7933C93.6485 86.8081 94.1836 85.4719 94.1836 84.0786V73.1953H54.3164Z" fill="#BD8BE6"/>
<path d="M89.8625 88.9012C89.8625 88.6358 90.2755 88.4677 90.9081 88.158C91.7896 87.752 92.5478 87.1169 93.1046 86.3179C93.4722 85.7682 93.7124 85.1424 93.8075 84.4867C93.8558 83.5702 93.8558 82.6518 93.8075 81.7353C93.7636 79.6121 93.746 77.1881 93.7373 74.5076V72.4463C93.7561 71.7943 93.7414 71.1417 93.6933 70.4912C93.5235 69.3427 92.8533 68.3306 91.8658 67.731C91.3561 67.4047 90.7728 67.213 90.1701 67.1737C89.9065 67.1737 89.432 67.1737 89.0366 67.1737H87.7627L82.614 67.1294L59.7172 67.0233C58.0895 67.0297 56.6215 68.0104 55.9831 69.518C55.8393 69.8817 55.7419 70.2621 55.6931 70.6504C55.6931 70.8539 55.6931 71.0043 55.6931 71.2608V72.004C55.6931 72.9859 55.6931 73.9591 55.6931 74.9145C55.6931 76.8431 55.6931 78.7451 55.6931 80.5941C55.6931 81.523 55.6931 82.4431 55.6931 83.3454C55.6793 83.7276 55.7058 84.1101 55.7722 84.4867C55.8353 84.8246 55.9447 85.1521 56.0973 85.4598C56.6805 86.6815 57.8374 87.5236 59.1724 87.698C59.3334 87.7068 59.4947 87.7068 59.6557 87.698H61.4832H63.8731H72.5801C83.229 87.698 89.8098 88.0165 89.8098 88.9277C89.8098 90.007 83.229 90.2812 72.5801 90.2812H63.8731H61.4832H59.6469C59.3883 90.2738 59.1302 90.2531 58.8737 90.2193C56.7238 89.9206 54.8729 88.5404 53.9623 86.5568C53.7275 86.057 53.5619 85.5272 53.4702 84.9821C53.3846 84.4649 53.3522 83.9401 53.3736 83.4162C53.3736 82.5315 53.3736 81.5938 53.3736 80.6649C53.3736 78.8159 53.3736 76.9139 53.3736 74.9853C53.3736 74.0299 53.3736 73.0567 53.3736 72.0747V71.2078C53.3736 70.9777 53.3736 70.6327 53.3736 70.3231C53.4434 69.7148 53.5972 69.1193 53.8305 68.5537C54.8245 66.2471 57.0794 64.7508 59.5766 64.7408L82.4734 64.6523H87.6221H88.8609C89.2827 64.6523 89.6341 64.6523 90.1701 64.6523C91.1586 64.7164 92.1171 65.0199 92.9641 65.537C94.5979 66.5129 95.7105 68.1754 95.9953 70.0665C96.0703 70.8396 96.0967 71.6167 96.0744 72.3932C96.0744 73.0921 96.0744 73.7821 96.0744 74.4545C96.0744 77.1085 96.0744 79.559 95.9953 81.6823V83.2304C95.9955 83.774 95.9426 84.3163 95.8371 84.8494C95.6215 85.8333 95.1621 86.7463 94.5016 87.5034C93.6329 88.5261 92.3982 89.162 91.0663 89.2727C90.2931 89.3523 89.8625 89.1135 89.8625 88.9012Z" fill="#315176"/>
<path d="M94.1836 73.7029C94.1836 75.8454 85.2568 74.8741 74.25 74.8741C63.2432 74.8741 54.3164 75.6644 54.3164 73.7029C54.3164 71.3796 63.2432 72.5318 74.25 72.5318C85.2568 72.5318 94.1836 71.7415 94.1836 73.7029Z" fill="#315176"/>
<path d="M116.016 72.7537C116.016 74.8961 114.527 73.9249 112.693 73.9249C110.859 73.9249 109.371 74.7152 109.371 72.7537C109.371 70.4304 110.859 71.5825 112.693 71.5825C114.527 71.5825 116.016 70.7922 116.016 72.7537Z" fill="#315176"/>
<path d="M39.1289 72.7537C39.1289 74.8961 37.6405 73.9249 35.8066 73.9249C33.9727 73.9249 32.4844 74.7152 32.4844 72.7537C32.4844 70.4304 33.9727 71.5825 35.8066 71.5825C37.6405 71.5825 39.1289 70.7922 39.1289 72.7537Z" fill="#315176"/>
<path d="M50.5195 83.6367H57.1641L58.1133 74.1445H54.3164L50.5195 83.6367V83.6367Z" fill="#66D3AC"/>
<path d="M51.0006 84.3331C50.3712 84.8119 50.4057 83.9086 50.8368 81.9665C51.5054 79.2497 52.3524 76.5846 53.3718 73.9902L53.6822 73.1953H54.4409L57.8899 73.2585H59.0625L58.9504 74.4509L58.8556 75.5078C58.571 78.8229 58.4158 81.9032 58.2175 84.4054L58.1399 85.5255H57.0276C55.3325 85.5765 53.6373 85.425 51.975 85.0739C50.8972 84.8119 50.5523 84.5861 50.992 84.2699C51.7436 83.8741 52.5448 83.5913 53.3718 83.4298C54.5519 83.0833 55.7774 82.9369 57.0018 82.9962L55.717 84.2247C56.0016 81.7406 56.4241 78.6874 56.7172 75.3633L56.8035 74.3154L57.864 75.5259L54.4151 75.5891L55.467 74.8122C54.8154 76.9872 53.9935 79.1021 53.0096 81.1354C52.5295 82.3195 51.8489 83.4029 51.0006 84.3331V84.3331Z" fill="#315176"/>
<path d="M65.147 43.3304C64.4971 43.3304 65.147 42.267 66.7675 40.291C68.3879 38.3149 71.0048 35.4704 74.2023 32.3158L75.0689 31.4297L75.9354 32.3158L80.5627 37.1984L83.093 39.8568L84.3841 41.1594L85.0514 41.8505L85.3893 42.1961L85.554 42.3645L85.6406 42.4531V42.4974V42.4974V42.4974V44.0393C82.0272 47.7344 78.7083 51.2612 75.8054 54.274L74.9389 55.1602L74.0724 54.274C70.8922 51.0928 68.2839 48.2572 66.6808 46.2989C65.0777 44.3406 64.3931 43.2683 64.9477 43.2772C65.5023 43.2861 67.0187 44.2519 68.8731 45.8204C71.3074 47.9128 73.6219 50.1466 75.8054 52.5106H74.1763C77.1486 49.5864 80.6234 46.2014 84.2368 42.5063V44.0481V44.0481V44.0481V44.0038L84.1502 43.9152L83.9855 43.7468L83.6476 43.4013L82.9804 42.7189L81.6459 41.3809L79.0463 38.7845L74.2283 34.0703H75.9094C73.1538 36.9503 70.8055 39.1922 68.9771 40.7872C67.1487 42.3822 65.7449 43.3215 65.147 43.3304Z" fill="#315176"/>
<path d="M76.5441 18.7856C76.5441 18.5398 77.4794 18.3817 79.297 18.3114C79.802 18.2689 80.3097 18.2689 80.8147 18.3114L82.6499 18.4871C83.3638 18.5682 84.0712 18.6973 84.7676 18.8735C85.5743 19.0186 86.3703 19.2181 87.1499 19.4706C91.2236 20.6767 95.0047 22.7033 98.2586 25.4245L99.6792 26.689L100.403 27.3301L101.073 28.0502L102.441 29.5343C102.891 30.0436 103.323 30.6144 103.712 31.1764C104.585 32.3274 105.384 33.5329 106.103 34.7856C106.482 35.4267 106.773 36.1204 107.117 36.8054C107.465 37.4878 107.759 38.1952 108 38.9217L108.82 41.1435C109.014 41.9162 109.217 42.6978 109.42 43.4881C109.63 44.2847 109.787 45.0945 109.888 45.9118C110.042 46.7418 110.142 47.5807 110.188 48.4234C110.188 49.3015 110.276 50.127 110.32 50.9964V53.5254C110.32 55.2291 110.32 56.959 110.32 58.7241C110.32 65.7494 110.276 73.3191 110.25 81.2488V87.2642C110.25 88.2828 110.25 89.3015 110.25 90.3289V91.8745C110.25 92.4635 110.197 93.0513 110.091 93.6308C109.836 94.8376 109.301 95.9683 108.529 96.9326C107.739 97.8966 106.728 98.6584 105.582 99.1544C105.015 99.3906 104.423 99.5615 103.817 99.6637C103.234 99.7513 102.643 99.7866 102.053 99.7691H98.8145H71.9647H45.8649C45.5462 99.7631 45.2281 99.7397 44.912 99.6988C42.3694 99.3646 40.1619 97.7901 39.0267 95.5012C38.4874 94.3935 38.2154 93.1756 38.2326 91.9447V88.8185C38.2326 84.6619 38.2326 80.6019 38.2326 76.6385C38.2326 68.7351 38.2326 61.1742 38.1797 54.1138V51.4793C38.1797 50.6012 38.2591 49.723 38.2944 48.8449C38.2944 48.4058 38.2944 47.9667 38.3738 47.5364L38.5679 46.2455C38.6749 45.392 38.8281 44.5448 39.0267 43.7077L39.5914 41.2927C39.8561 40.5024 40.1561 39.7384 40.4738 38.9744C40.7432 38.2144 41.0676 37.4748 41.4444 36.7615C41.6208 36.4014 41.7885 36.0414 41.965 35.6901C42.127 35.3312 42.3158 34.9848 42.5297 34.6539L43.7385 32.6868C44.1355 32.0458 44.6208 31.475 45.062 30.8691C45.9371 29.7141 46.8799 28.6116 47.8855 27.5672C48.3796 27.0666 48.9178 26.6276 49.4208 26.1709C49.9068 25.7276 50.4196 25.3141 50.9561 24.9327C51.9648 24.1437 53.0228 23.4193 54.1237 22.7637C57.7394 20.5652 61.7534 19.0943 65.9383 18.4344L68.3736 18.1446C69.1412 18.1446 69.8559 18.1446 70.5265 18.1446C71.631 18.1265 72.7357 18.1705 73.8353 18.2763C75.6 18.4344 76.5441 18.6188 76.5441 18.8471C76.5441 19.0754 75.6088 19.3301 73.8353 19.5057C72.953 19.6023 71.8412 19.655 70.5971 19.8043L68.5677 20.0151L66.3001 20.4454C62.4378 21.2548 58.751 22.7416 55.4119 24.8361C54.4046 25.4639 53.4353 26.15 52.509 26.891C52.0012 27.2512 51.5178 27.6443 51.0619 28.0677C50.6031 28.498 50.109 28.9459 49.659 29.3762C48.7148 30.334 47.8308 31.3487 47.012 32.4146C46.6149 32.9678 46.1296 33.5035 45.7943 34.1007L44.6826 35.9184C44.4815 36.2219 44.3073 36.5422 44.162 36.8756L43.6855 37.8592C43.3435 38.5197 43.0486 39.2034 42.8032 39.9053C42.5473 40.6078 42.2738 41.3191 42.0267 42.048C41.7797 42.7768 41.6385 43.5408 41.4355 44.3048C41.2479 45.0744 41.1065 45.8544 41.012 46.6407L40.8267 47.8262C40.7738 48.2302 40.7738 48.6429 40.7473 49.0469C40.7473 49.8723 40.6414 50.6714 40.6238 51.532V54.1665C40.6238 61.1917 40.5708 68.7614 40.5356 76.6912C40.5356 80.6546 40.5208 84.7146 40.4914 88.8712C40.4914 89.9074 40.4914 90.9524 40.4914 91.9974C40.4627 92.8808 40.6504 93.7578 41.0385 94.5528C41.8231 96.1757 43.3746 97.2975 45.1679 97.5386C45.3926 97.5739 45.6198 97.5915 45.8473 97.5913H51.5825H58.2531H71.903H98.7528H101.991C102.466 97.6079 102.941 97.5815 103.412 97.5122C103.846 97.4419 104.27 97.318 104.673 97.1434C106.3 96.4315 107.478 94.9775 107.832 93.2444C107.907 92.8094 107.939 92.3683 107.929 91.9272V90.3816C107.929 89.3542 107.929 88.3355 107.929 87.3168C107.929 85.2883 107.929 83.2773 107.929 81.3015C107.929 73.3981 107.929 65.8284 107.876 58.7768V53.5694C107.876 52.6912 107.876 51.8833 107.876 51.049C107.876 50.2148 107.788 49.4508 107.753 48.6605C107.709 47.8819 107.612 47.1073 107.462 46.3421C107.374 45.5837 107.233 44.8325 107.038 44.0941L106.482 41.925L105.697 39.8614C105.45 39.1884 105.155 38.5339 104.814 37.9031C104.497 37.2708 104.232 36.621 103.879 36.0326C103.225 34.8639 102.497 33.7376 101.7 32.6605C101.303 32.1512 100.941 31.6067 100.535 31.1325L99.2733 29.7362L98.6645 29.0601L98.0028 28.4541L96.7057 27.2598C93.7136 24.677 90.2634 22.6726 86.5323 21.3499C85.8114 21.073 85.0748 20.8384 84.3264 20.6473C83.6822 20.4288 83.0251 20.2499 82.3588 20.1117L80.5941 19.7516C80.1206 19.6342 79.6403 19.5462 79.1558 19.4882C77.4706 19.2423 76.5441 19.014 76.5441 18.7856Z" fill="#315176"/>
<path d="M44.2005 98.8155C43.2139 98.8155 42.952 88.2858 42.9258 71.2589C42.9258 67 42.9258 62.3405 42.9258 57.3239C42.9258 56.0784 42.9258 54.7981 42.9258 53.5091V51.5669L43.1091 49.5028V48.4577L43.2663 47.4125C43.3798 46.7245 43.4758 46.019 43.6155 45.3136C43.9339 43.9023 44.3481 42.5143 44.8554 41.1592C47.0485 35.3844 50.9799 30.4284 56.1098 26.9715C58.8201 25.1808 61.8002 23.8342 64.937 22.9826L66.1332 22.6778C66.5306 22.5628 66.9364 22.4783 67.3468 22.4252C68.1675 22.3033 68.9882 22.1639 69.809 22.0681L72.3235 21.9375C73.1967 21.9375 73.9475 21.9375 74.7683 21.9375C75.589 21.9375 76.3835 21.9375 77.213 21.9375L79.7188 22.0681C80.5919 22.1727 81.369 22.3033 82.1897 22.4252C82.6 22.4792 83.0057 22.5637 83.4034 22.6778L84.5995 22.9826C87.7319 23.8388 90.7084 25.1852 93.418 26.9715C98.5289 30.4374 102.439 35.3965 104.611 41.1679C105.123 42.5224 105.54 43.9105 105.86 45.3223C106 46.019 106.087 46.7245 106.2 47.4212L106.358 48.4577L106.419 49.5028L106.523 51.5669V53.5178V57.3326V71.2676C106.523 88.2945 106.209 98.8242 105.31 98.8242C104.245 98.8242 103.974 88.2945 103.974 71.2676C103.974 67.0087 103.974 62.3492 103.974 57.3326V53.5178C103.974 52.8733 103.974 52.2201 103.974 51.5669C103.974 50.9137 103.922 50.3041 103.895 49.6596V48.7015L103.756 47.7435C103.66 47.1077 103.59 46.4545 103.459 45.8187C103.181 44.5168 102.81 43.2361 102.35 41.9866C100.406 36.646 96.8454 32.0409 92.1607 28.8092C89.6655 27.1366 86.9184 25.8723 84.0233 25.0642L82.9144 24.7768C82.5459 24.6706 82.1691 24.5948 81.7881 24.5503C81.0285 24.4371 80.2689 24.3065 79.5005 24.2019L77.1606 24.0887C76.3835 24.0452 75.5453 24.0887 74.7421 24.0887C73.9388 24.0887 73.1006 24.0887 72.3235 24.0887L70.0011 24.2019C69.2327 24.2978 68.4731 24.4371 67.7135 24.5416C67.3322 24.589 66.9555 24.6676 66.5872 24.7768L65.4783 25.0642C62.5813 25.8662 59.8313 27.1246 57.3322 28.7918C52.6321 32.0197 49.0533 36.6243 47.0905 41.9692C46.6288 43.2197 46.2524 44.5 45.9642 45.8013C45.842 46.4458 45.7721 47.099 45.6674 47.7348L45.5277 48.6928L45.484 49.6596C45.484 50.2954 45.4229 50.9311 45.3967 51.5669V53.5178V57.3326V71.2676C45.3705 88.2858 45.0998 98.8155 44.2005 98.8155Z" fill="#315176"/>
<path d="M40.078 64.5074C40.078 65.5537 38.1381 65.4932 36.0889 67.2313C34.8928 68.2544 34.1587 69.6763 34.0397 71.2006C33.9578 73.1895 33.9213 75.5244 33.9122 77.9111C33.9031 80.2979 33.9122 82.6327 34.0124 84.6217C34.128 86.1556 34.8542 87.5902 36.0434 88.6342C38.1108 90.3637 40.078 90.3637 40.078 91.3149C40.078 91.8165 39.5316 92.1797 38.4387 92.1797C36.8738 92.1007 35.3921 91.4863 34.2674 90.4502C32.5421 88.9675 31.5509 86.8657 31.5352 84.6563C31.5352 82.4944 31.6627 80.2719 31.6536 77.8593C31.6444 75.4466 31.5898 73.2241 31.5807 71.0622C31.641 68.8775 32.6575 66.8155 34.3858 65.3721C35.5115 64.3777 36.9674 63.7874 38.5024 63.7031C39.5407 63.7377 40.0871 64.0836 40.078 64.5074Z" fill="#315176"/>
<path d="M108.422 64.5687C108.422 64.1013 108.971 63.7031 110.059 63.7031C111.62 63.7922 113.096 64.4061 114.221 65.4342C115.941 66.9087 116.935 68.994 116.965 71.1901C116.965 73.354 116.855 75.5785 116.864 77.9933C116.873 80.4082 116.928 82.6327 116.937 84.7966C116.901 86.9787 115.907 89.0481 114.193 90.5092C113.063 91.5045 111.601 92.0953 110.059 92.1797C108.98 92.1797 108.431 91.8335 108.44 91.4093C108.44 90.2841 110.352 90.3361 112.401 88.6309C113.604 87.6281 114.348 86.2223 114.477 84.71C114.578 82.7192 114.623 80.3823 114.632 77.9933C114.642 75.6044 114.632 73.2674 114.532 71.2767C114.416 69.7414 113.686 68.3055 112.492 67.2605C110.398 65.4775 108.422 65.5294 108.422 64.5687Z" fill="#315176"/>
<path d="M79.9453 42.3787C79.9453 44.5211 77.3932 43.5499 74.25 43.5499C71.1068 43.5499 68.5547 44.3402 68.5547 42.3787C68.5547 40.0554 71.1068 41.2075 74.25 41.2075C77.3932 41.2075 79.9453 40.4172 79.9453 42.3787Z" fill="#315176"/>
<path d="M76.4061 8.64844H72.111C67.0048 8.64844 62.8641 12.9149 62.8594 18.1811V21.9375H65.0842C65.6735 21.9375 66.2385 21.6955 66.6544 21.2649C67.0703 20.8343 67.3028 20.2507 67.3005 19.6429V19.2797C67.3052 16.7765 69.2716 14.7486 71.6987 14.7437H76.8528C79.2665 14.7679 81.2121 16.7903 81.2167 19.2797V19.6252C81.2098 20.236 81.4402 20.8242 81.8566 21.2587C82.273 21.6931 82.8407 21.9375 83.4329 21.9375H85.6406V18.1811C85.6359 12.9218 81.5056 8.6582 76.4061 8.64844V8.64844Z" fill="#CEA8EC"/>
<path d="M75.8907 8.73168C75.8907 8.42134 76.3715 8.13686 77.333 8.08514C78.7396 8.04617 80.1292 8.3955 81.3452 9.09375C83.2939 10.1497 84.8313 11.8146 85.7157 13.8265C86.2608 15.057 86.5577 16.3805 86.5898 17.723C86.5898 19.0333 86.5898 20.3092 86.5898 21.6626V22.8867H85.2874H83.2595H82.9885H82.5952C82.3282 22.8543 82.0667 22.7876 81.8172 22.6884C80.7885 22.3005 80.0092 21.4519 79.7193 20.404C79.6515 20.1417 79.6134 19.8728 79.6057 19.6023V19.3005C79.6102 19.2201 79.6102 19.1396 79.6057 19.0592C79.595 18.5111 79.4447 17.9746 79.1686 17.4988C78.5835 16.4814 77.4962 15.8452 76.3103 15.8264H71.5027H71.0569H70.716C70.4906 15.8511 70.2681 15.8973 70.0517 15.9644C69.6257 16.0985 69.2327 16.3187 68.8979 16.6109C68.2257 17.1749 67.805 17.9767 67.7265 18.8437V19.0764C67.7348 19.2315 67.7348 19.3869 67.7265 19.5419C67.7229 19.9752 67.6307 20.4032 67.4556 20.8005C67.1299 21.5648 66.5245 22.1803 65.7598 22.5247C65.389 22.6971 64.9888 22.7995 64.5798 22.8264H60.9609V21.6626V19.2316V18.0506C60.9609 17.6281 60.9609 17.1885 61.0309 16.7661C61.207 15.1329 61.7667 13.5626 62.6655 12.1799C64.1923 9.93058 66.5692 8.37819 69.265 7.86962C70.2253 7.70048 71.204 7.65701 72.1758 7.74031C72.9712 7.80066 73.6443 7.87824 74.1862 7.96445C75.2876 8.14548 75.8733 8.39548 75.8733 8.73168C75.8733 9.06789 75.2876 9.42133 74.1862 9.59374C73.5211 9.71063 72.8499 9.79121 72.1758 9.83512C71.363 9.87027 70.5554 9.97993 69.7632 10.1627C67.7327 10.6615 65.9555 11.8718 64.7633 13.5678C64.0591 14.6029 63.6019 15.7818 63.4259 17.0161C63.3735 17.3437 63.3735 17.6713 63.3385 18.0161V19.1971C63.3385 19.9902 63.3385 20.8005 63.3385 21.6281L62.141 20.4471H63.7319H64.4749C64.6071 20.4471 64.7379 20.4207 64.8595 20.3695C65.114 20.2617 65.3193 20.0653 65.4364 19.8178C65.4976 19.6937 65.5332 19.559 65.5413 19.4212C65.5413 19.3695 65.5413 19.1626 65.5413 19.0419V18.5247C65.6904 17.0957 66.3954 15.7794 67.508 14.8523C68.0773 14.4161 68.7276 14.0939 69.4223 13.904C69.7764 13.7988 70.1391 13.7238 70.5062 13.6799H71.0569H76.3016C78.2646 13.6912 80.0785 14.7148 81.083 16.3782C81.5639 17.1602 81.8346 18.0503 81.8696 18.9643C81.8696 19.085 81.8696 19.1885 81.8696 19.2747C81.8643 19.3522 81.8643 19.4299 81.8696 19.5074C81.8556 19.5931 81.8556 19.6804 81.8696 19.7661C81.9168 19.9351 82.0071 20.0895 82.1319 20.2143C82.2506 20.3363 82.3976 20.428 82.5602 20.4816C82.6392 20.5107 82.7213 20.531 82.8049 20.5419H83.1721H85.2L84.1074 21.6626C84.1074 20.3178 84.1074 18.9643 84.1074 17.7919C84.0665 16.7502 83.8325 15.7247 83.4168 14.7661C82.7339 13.215 81.6107 11.8917 80.1826 10.9558C79.2353 10.3343 78.2059 9.84406 77.1232 9.49892C76.354 9.24892 75.8907 9.05065 75.8907 8.73168Z" fill="#315176"/>
<path d="M127.406 99.3319C127.406 101.474 103.608 100.503 74.25 100.503C44.8919 100.503 21.0938 101.293 21.0938 99.3319C21.0938 97.0085 44.8919 98.1607 74.25 98.1607C103.608 98.1607 127.406 97.3704 127.406 99.3319Z" fill="#315176"/>
<path d="M98.9463 13.3649C97.2924 13.0823 98.2046 11.7204 98.479 9.93885C98.7534 8.1573 98.2936 6.51279 99.8066 6.77831C101.594 7.08666 100.548 8.42282 100.281 10.2472C100.014 12.0716 100.459 13.6304 98.9463 13.3649Z" fill="#79D9B7"/>
<path d="M106.552 23.853C106.835 22.1995 108.19 23.1115 109.982 23.3784C111.774 23.6453 113.412 23.2005 113.138 24.7131C112.829 26.5 111.5 25.4545 109.708 25.1876C107.915 24.9207 106.286 25.3359 106.552 23.853Z" fill="#79D9B7"/>
<path d="M103.045 19.5121C101.821 17.8523 104.352 17.137 106.792 15.3304C109.232 13.5239 110.748 11.4514 111.863 12.9736C113.188 14.8077 110.557 15.3396 108.126 17.1461C105.695 18.9527 104.169 21.0344 103.045 19.5121Z" fill="#79D9B7"/>
</svg>
