<svg width="149" height="108" viewBox="0 0 149 108" fill="none" xmlns="http://www.w3.org/2000/svg">
<path d="M31.5195 71.8575H105.424C111.436 71.8575 116.311 76.6956 116.311 82.6638V83.006C116.311 88.9741 111.436 93.8123 105.424 93.8123H31.5195V71.8575Z" fill="#FEF1CE"/>
<path d="M110.391 73.3992C112.194 76.8756 112.081 81.0566 110.092 84.4269C108.103 87.7971 104.527 89.8674 100.66 89.8873H31.5195V94.5692H105.194C110.298 94.5975 114.757 91.0715 115.985 86.0371C117.213 81.0027 114.89 75.7686 110.364 73.3716L110.391 73.3992Z" fill="#FCE39C"/>
<path d="M115.554 77.5604C115.554 79.2712 96.7412 78.4957 73.5365 78.4957C50.3319 78.4957 31.5195 79.1344 31.5195 77.5604C31.5195 75.7127 50.3319 76.6251 73.5365 76.6251C96.7412 76.6251 115.554 75.994 115.554 77.5604Z" fill="#FACE51"/>
<path d="M115.554 82.8612C115.554 84.5699 96.7412 83.7953 73.5365 83.7953C50.3319 83.7953 31.5195 84.4256 31.5195 82.8612C31.5195 81.0082 50.3319 81.9271 73.5365 81.9271C96.7412 81.9271 115.554 81.2816 115.554 82.8612Z" fill="#FACE51"/>
<path d="M115.554 88.1572C115.554 89.8649 96.7412 89.0983 73.5365 89.0983C50.3319 89.0983 31.5195 89.7283 31.5195 88.1572C31.5195 86.3128 50.3319 87.2236 73.5365 87.2236C96.7412 87.2236 115.554 86.586 115.554 88.1572Z" fill="#FACE51"/>
<path d="M28.4912 68.8292H105.282C113.464 68.8292 120.096 75.4346 120.096 83.5829V83.5829C120.101 87.4989 118.542 91.2562 115.764 94.027C112.985 96.7978 109.214 98.3547 105.282 98.3547H29.4205V94.1808H105.282C111.416 94.1808 116.388 89.2288 116.388 83.1201V83.1201C116.393 80.1835 115.225 77.3655 113.142 75.2873C111.058 73.2091 108.231 72.0412 105.282 72.0412H28.4912V68.8292Z" fill="#BD8BE6"/>
<path d="M29.0628 68.6273C29.3904 69.6596 29.5855 70.7286 29.6434 71.8091L29.0628 71.2339C37.2277 70.6227 60.5977 70.4789 93.575 70.4969H105.532L106.439 70.5418C111.66 70.9196 116.069 74.524 117.435 79.5299C117.786 80.79 117.921 82.0995 117.834 83.4038C117.764 84.7246 117.473 86.0246 116.972 87.2508C115.946 89.761 114.108 91.8631 111.747 93.2279C110.55 93.9161 109.247 94.405 107.891 94.675L106.857 94.8278C106.512 94.8278 106.167 94.8278 105.822 94.8817C105.133 94.8817 104.543 94.8817 103.908 94.8817H96.2604L29.9518 94.7828L31.1403 93.7402V97.8747L30.0244 96.7692H32.1292H71.6839H90.4905H99.6171H104.099C105.495 96.8158 106.893 96.7255 108.272 96.4995C109.583 96.2177 110.85 95.7611 112.037 95.1423C113.188 94.4964 114.249 93.7048 115.194 92.7874C116.094 91.8541 116.871 90.8123 117.507 89.6865C118.098 88.5492 118.537 87.3407 118.814 86.0913C119.842 81.1774 118.019 76.1055 114.087 72.9416C112.254 71.4743 110.064 70.5102 107.737 70.1463C107.446 70.1463 107.165 70.0475 106.884 70.0295L105.977 69.9845C105.432 69.9845 104.77 69.9845 104.162 69.9845H100.533H86.7709C69.2435 69.9216 55.0183 69.7329 45.0389 69.5261C35.0595 69.3194 29.3712 69.0767 29.0355 68.7532C28.6999 68.4296 33.9073 68.106 43.8051 67.8544C53.7028 67.6027 68.2818 67.3151 86.2992 67.3151H104.144C104.788 67.3151 105.369 67.3151 106.067 67.3151L107.093 67.369C107.437 67.369 107.773 67.4679 108.109 67.5128C112.448 68.2146 116.309 70.645 118.794 74.2392C121.279 77.8333 122.171 82.2781 121.263 86.5407C120.926 88.017 120.396 89.4432 119.685 90.7831C118.197 93.5093 115.936 95.7437 113.18 97.2096C111.773 97.9393 110.271 98.4717 108.717 98.7915C107.18 99.0501 105.62 99.1525 104.062 99.0971H99.5808H90.4542H71.6476H32.0929H28.8722V92.8054H29.9881L96.2967 92.7245H103.945C104.561 92.7245 105.233 92.7245 105.759 92.7245C106.04 92.7245 106.321 92.7245 106.594 92.6706L107.419 92.5448C108.499 92.323 109.534 91.9283 110.486 91.3763C112.37 90.2858 113.832 88.6028 114.641 86.5946C115.038 85.6181 115.265 84.5817 115.312 83.5297C115.385 82.4946 115.277 81.4548 114.994 80.4557C113.928 76.4545 110.415 73.5658 106.249 73.2652H105.514H93.575C60.5977 73.2652 37.2549 73.1124 29.0628 72.5462H28.4912V72.0608C28.7089 69.4453 28.9448 68.4835 29.0628 68.6273Z" fill="#315176"/>
<path d="M51.96 45.2125C51.96 57.8376 62.1284 68.0722 74.6719 68.0722C87.2153 68.0722 97.3838 57.8376 97.3838 45.2125C97.3838 22.8213 81.1597 32.1433 74.6719 32.1433C70.0364 32.1433 51.96 22.8213 51.96 45.2125Z" fill="#F16986"/>
<path d="M91.2219 30.976C93.285 33.0964 94.6241 36.8251 94.6241 43.1504C94.6188 51.0953 90.367 58.4404 83.4559 62.4439C76.5447 66.4475 68.0128 66.5078 61.0449 62.6024C67.8322 67.847 77.0356 68.7938 84.7615 65.0421C92.4874 61.2905 97.3857 53.496 97.384 44.9563C97.384 36.1153 94.7689 32.3327 91.2219 30.976Z" fill="#ED4368"/>
<path d="M57.2525 46.086C56.3024 46.28 55.9224 45.5596 55.7583 44.2943C55.6771 42.5526 55.9727 40.8144 56.622 39.2147C56.8169 38.7219 57.0632 38.254 57.3562 37.8202C57.6422 37.4101 57.976 37.0408 58.3495 36.7211C58.9688 36.164 59.7078 35.78 60.5002 35.6036C61.8217 35.3173 62.6682 35.7699 62.5472 36.7027C62.4177 37.8294 61.8994 38.0141 61.0875 38.2265C60.617 38.3177 60.1626 38.4859 59.7401 38.7253C59.4972 38.8789 59.2737 39.0651 59.075 39.2794C58.8603 39.5323 58.6879 39.8228 58.5654 40.1383C58.201 41.4174 58.0921 42.7641 58.2458 44.0911C58.2976 45.1717 58.1249 45.9013 57.2525 46.086Z" fill="#FCDEE5"/>
<ellipse cx="73.5361" cy="34.7614" rx="4.92091" ry="2.27119" fill="#ED4368"/>
<path d="M51.8947 44.915C51.4329 44.915 50.9892 42.9731 51.3152 39.3446C51.5621 37.0581 52.361 34.8671 53.6423 32.9629C54.5227 31.7289 55.6758 30.7177 57.0106 30.009C58.4849 29.2525 60.1023 28.8205 61.7552 28.7418C65.1235 28.5139 68.6096 29.38 72.0956 30.237C72.8856 30.4555 73.6956 30.593 74.5132 30.6472C75.3991 30.6125 76.2805 30.5027 77.1481 30.319C78.959 29.9543 80.9601 29.462 83.0517 29.1429C85.2592 28.7187 87.5265 28.7187 89.734 29.1429C90.9386 29.4093 92.0818 29.9044 93.1023 30.6016C94.1327 31.3251 95.0022 32.2565 95.6557 33.3367C95.9933 33.866 96.2958 34.4173 96.5612 34.9868C96.7604 35.5521 97.023 36.1264 97.1678 36.7099C97.3448 37.2903 97.4869 37.8809 97.5934 38.4785C97.7208 39.0656 97.8175 39.659 97.8832 40.2563C98.1817 42.6762 98.2212 45.1214 98.0009 47.5498C97.4338 52.4154 95.4022 56.99 92.1787 60.6597C90.6815 62.4083 88.929 63.9176 86.9814 65.1361C85.1232 66.3311 83.1047 67.2522 80.9872 67.8711C73.5162 70.0707 65.4487 68.4311 59.4101 63.4859C57.1321 61.616 55.2403 59.3147 53.8415 56.7122C53.5324 56.1677 53.2572 55.6044 53.0175 55.0255L52.7006 54.2141L52.4289 53.4119C52.2569 52.8831 52.0849 52.3817 51.94 51.8985L51.6502 50.4854C51.4918 49.6983 51.3979 48.8994 51.3695 48.0968C51.3076 47.515 51.3076 46.9282 51.3695 46.3463C51.4873 45.4347 51.6502 44.915 51.8857 44.915C52.1211 44.915 52.4108 45.3891 52.6372 46.2643C52.7458 46.7019 52.8454 47.2398 53.0356 47.8689C53.2257 48.4979 53.3253 49.2181 53.6151 50.0022L54.0044 51.2421L54.5477 52.5731L54.8375 53.2842L55.1997 53.9953C55.4622 54.4603 55.6614 54.9891 55.9965 55.4723C58.955 60.5571 63.8257 64.2254 69.506 65.6466C73.0596 66.5312 76.7794 66.4809 80.3081 65.5008C84.2251 64.3879 87.746 62.1742 90.4584 59.119C93.3879 55.8127 95.2232 51.6707 95.71 47.2671C95.9081 45.0233 95.8656 42.7645 95.5833 40.5298C95.3868 38.4212 94.738 36.3807 93.6818 34.5492C92.6857 32.9018 91.0386 31.7608 89.1545 31.413C87.2335 31.0822 85.2681 31.1162 83.3595 31.5133C81.4128 31.8324 79.5113 32.3338 77.5646 32.735C76.5619 32.9643 75.5405 33.1016 74.5132 33.1452C73.4915 33.1126 72.4768 32.9627 71.4889 32.6985C67.9305 31.8415 64.7342 31.1031 61.882 31.2854C59.4164 31.2914 57.0861 32.4209 55.5437 34.3578C54.4209 35.9473 53.6378 37.754 53.2439 39.6637C52.5648 42.9731 52.4108 44.9241 51.8947 44.915Z" fill="#315176"/>
<path d="M74.0773 36.2755C72.7807 36.2755 72.4263 35.4314 72.4004 34.0677C72.4043 33.2838 72.4447 32.5005 72.5214 31.7208C72.5978 30.6272 72.7538 29.5416 72.9882 28.4741C73.2083 27.3972 73.5208 26.3445 73.9217 25.3295C74.0965 24.8811 74.3017 24.447 74.5354 24.0308C74.7155 23.7104 74.9117 23.4007 75.1232 23.1031C75.8752 21.9993 76.6013 21.5169 77.5953 22.2219C78.7622 23.0568 78.6153 23.9658 77.9151 25.1068C77.7509 25.3758 77.5089 25.7191 77.3187 25.9695C77.1286 26.22 76.9125 26.5354 76.7137 26.8971C76.2678 27.6061 75.9429 28.3945 75.7542 29.2255C75.5899 30.0448 75.5404 30.8858 75.6072 31.7208C75.6706 32.5167 75.6937 33.3156 75.6764 34.1141C75.6245 35.4314 75.2701 36.2755 74.0773 36.2755Z" fill="#315176"/>
<path d="M79.6004 35.2504C80.2969 35.9192 79.9795 36.7112 78.9216 37.4152C77.5047 38.2065 75.8981 38.596 74.2755 38.5417C72.6551 38.5904 71.0539 38.1816 69.6558 37.3624C68.6155 36.6496 68.307 35.8664 68.9505 35.2504C69.7352 34.5024 70.2818 34.7224 71.0135 35.18C71.9635 35.8826 73.0958 36.298 74.2755 36.3768C75.4568 36.3073 76.5994 35.9311 77.5903 35.2856C78.3662 34.8456 78.904 34.6168 79.6004 35.2504Z" fill="#315176"/>
<path d="M62.5661 16.6007C62.5661 16.6007 62.2691 21.982 65.4059 25.1141C68.5427 28.2462 73.9068 27.9395 73.9068 27.9395C73.9068 27.9395 74.2038 22.5675 71.1227 19.4261C68.0416 16.2847 62.5661 16.6007 62.5661 16.6007Z" fill="#00B674"/>
<path d="M62.7388 16.1274C62.7388 15.6109 63.2357 15.2051 64.1941 15.1129C65.5715 14.9896 66.9578 15.1914 68.2495 15.7031C69.1865 16.0661 70.0614 16.583 70.8408 17.2341C71.7613 17.9868 72.5225 18.9287 73.077 20.001C73.6637 21.1156 74.0855 22.3157 74.3282 23.561C74.5879 24.868 74.701 26.2019 74.6655 27.536C72.6067 29.6757 74.0886 28.1263 73.6272 28.6058H72.6244L71.6749 28.5413C71.0492 28.4766 70.4272 28.3781 69.8114 28.2462C68.6172 27.9851 67.4662 27.5439 66.3949 26.9365C65.3894 26.3192 64.5141 25.4973 63.8214 24.5201C63.2137 23.7116 62.7316 22.8091 62.3927 21.8455C61.9109 20.5067 61.72 19.0737 61.8336 17.6491C61.949 16.6623 62.2862 16.1181 62.721 16.1458C63.1559 16.1735 63.6084 16.6531 63.8392 17.4923C64.0699 18.3316 64.3184 19.5398 64.8064 20.9048C65.2928 22.4687 66.2791 23.8128 67.6017 24.7138C68.4228 25.2526 69.3216 25.6512 70.2639 25.8943C70.7847 26.0258 71.312 26.1274 71.8435 26.1987C72.1186 26.1987 72.3937 26.254 72.6688 26.2632H73.077H73.4586C73.006 26.7428 74.488 25.1934 72.4381 27.3331C72.5087 25.1811 72.0017 23.0511 70.9739 21.1815C70.1321 19.7829 68.8636 18.7178 67.371 18.1564C66.0577 17.6307 64.8774 17.3909 64.061 17.1327C63.2446 16.8744 62.7654 16.607 62.7388 16.1274Z" fill="#315176"/>
<ellipse cx="107.983" cy="30.219" rx="3.78531" ry="3.78532" fill="#FBD9E1"/>
<path d="M104.381 30.2424C104.267 30.2424 104.197 30.2424 104.197 30.1352C104.23 29.9236 104.361 29.741 104.548 29.6437C104.825 29.4065 105.118 29.1886 105.424 28.9915C105.799 28.7602 106.126 28.4567 106.388 28.098C106.73 27.5262 106.995 26.9102 107.176 26.2664V26.2664C107.281 25.9161 107.597 25.6766 107.956 25.6766C108.315 25.6766 108.632 25.9161 108.736 26.2664C108.892 27.0205 109.189 27.7366 109.612 28.375C110.21 28.9642 110.956 29.3725 111.768 29.5544V30.9571V30.9571V30.9571H111.68L111.514 31.0108L111.181 31.1358C110.974 31.2127 110.772 31.3022 110.576 31.4039C110.241 31.562 109.943 31.7904 109.7 32.074C109.281 32.7146 108.984 33.4299 108.824 34.1826C108.697 34.6112 108.255 34.8548 107.834 34.7276C107.586 34.6474 107.391 34.4516 107.308 34.2004V34.2004C107.127 33.5524 106.865 32.9308 106.528 32.351C106.264 31.9886 105.93 31.6846 105.547 31.4575C105.241 31.2625 104.949 31.0476 104.67 30.8142C104.491 30.7214 104.362 30.5505 104.32 30.3496C104.32 30.2513 104.39 30.2424 104.486 30.2424C104.619 30.2719 104.757 30.2719 104.889 30.2424C105.02 30.1845 105.098 30.0469 105.082 29.9029C105.483 29.8562 105.889 29.921 106.256 30.0905C106.938 30.352 107.527 30.8157 107.948 31.4217C108.393 32.1456 108.719 32.9395 108.911 33.7716H107.15C107.416 32.8117 107.872 31.9176 108.491 31.1448C108.89 30.7046 109.373 30.3519 109.91 30.1083C110.164 29.9922 110.41 29.8939 110.655 29.7956L111.023 29.6705L111.207 29.608H111.295H111.347V29.608V31.0108C110.846 30.8546 110.354 30.6666 109.875 30.4479C109.356 30.2111 108.888 29.8709 108.5 29.4472C107.889 28.6695 107.442 27.7724 107.185 26.8114H108.71C108.511 27.6357 108.179 28.4206 107.728 29.1345C107.31 29.7216 106.731 30.1693 106.064 30.4211C105.7 30.5847 105.303 30.6552 104.907 30.6266C104.895 30.4977 104.809 30.3886 104.688 30.3496C104.593 30.2947 104.489 30.2583 104.381 30.2424Z" fill="#315176"/>
<ellipse cx="94.3551" cy="12.8065" rx="5.29944" ry="5.29944" fill="#FEF1CE"/>
<path d="M89.2117 12.8571C89.095 12.8571 89.0411 12.8571 89.059 12.7297C89.1418 12.4972 89.3087 12.3053 89.526 12.1929C89.9121 11.9109 90.3072 11.6926 90.8549 11.365C91.4464 11.0334 91.9584 10.5736 92.3544 10.0185C92.8621 9.18622 93.252 8.28585 93.5128 7.34377V7.34377C93.6249 6.98996 93.9496 6.75 94.3164 6.75C94.6831 6.75 95.0079 6.98996 95.12 7.34377C95.3611 8.44269 95.8159 9.4819 96.4579 10.4007C97.346 11.266 98.4519 11.8672 99.6545 12.1384C99.6545 14.986 99.6545 12.9299 99.6545 13.5667H99.6007H99.5378H99.4121L99.1697 13.6486L98.7027 13.8124C98.3915 13.9337 98.0922 14.061 97.8048 14.1945C97.2905 14.4394 96.8296 14.7858 96.449 15.2134C95.8049 16.1332 95.3443 17.1716 95.0931 18.2703C94.9936 18.6213 94.6768 18.863 94.3164 18.863C93.956 18.863 93.6392 18.6213 93.5397 18.2703V18.2703C93.2655 17.3721 92.8793 16.513 92.3903 15.7138C91.9933 15.1457 91.4745 14.6761 90.8729 14.34C90.3251 14.0125 89.9211 13.7942 89.5439 13.5212C89.3317 13.4154 89.1654 13.234 89.077 13.0117C89.077 12.9117 89.077 12.9026 89.2117 12.9026C89.3627 12.9075 89.5136 12.8922 89.6607 12.8571C89.8053 12.8112 89.9212 12.7005 89.9749 12.5569C90.5262 12.5529 91.0716 12.6709 91.5732 12.9026C92.4833 13.2697 93.2648 13.9031 93.818 14.7222C94.433 15.7088 94.8849 16.7905 95.156 17.9246H93.4948C93.8428 16.6004 94.4539 15.3621 95.2906 14.2855C95.8207 13.7223 96.4555 13.2709 97.1583 12.9572C97.4995 12.7934 97.8318 12.6569 98.173 12.5296L98.6938 12.3476L98.9452 12.2657L99.0799 12.2202H99.1427V12.2202V12.2202V13.6486C98.445 13.4309 97.7613 13.1696 97.0955 12.8662C96.3946 12.5542 95.7648 12.0989 95.2457 11.5288C94.4058 10.4543 93.7943 9.21523 93.4499 7.88964H95.0123C94.7398 9.01625 94.2847 10.0892 93.6654 11.0648C93.1039 11.8515 92.3309 12.4579 91.4385 12.8116C90.9378 13.0384 90.3976 13.1621 89.8492 13.1755C89.771 13.0561 89.6531 12.9689 89.517 12.9299C89.4179 12.8952 89.3156 12.8708 89.2117 12.8571V12.8571Z" fill="#315176"/>
<circle cx="47.796" cy="19.2415" r="1.89266" fill="#FBD9E1"/>
<path d="M49.8014 19.6148C49.1121 19.6148 48.9957 19.0858 48.5124 18.6939C48.2202 18.4554 47.8457 18.3728 47.4919 18.4686C47.0186 18.6094 46.6891 19.0781 46.6862 19.6148C46.6901 20.1554 47.0176 20.6292 47.4919 20.7805C47.8528 20.8856 48.2378 20.8064 48.5392 20.565C49.0495 20.1732 49.1658 19.654 49.8014 19.5854C50.1505 19.5854 50.4101 19.8009 50.4459 20.2907C50.4297 21.0035 50.0953 21.6624 49.5508 22.054C48.779 22.6923 47.7531 22.827 46.8652 22.4067C45.8228 21.9343 45.1441 20.8201 45.1465 19.5854C45.1442 18.3549 45.8292 17.2479 46.8742 16.7935C47.743 16.4219 48.7258 16.5702 49.4702 17.1853C50.0164 17.5686 50.3573 18.2196 50.3833 18.9291C50.3296 19.4091 50.0968 19.6246 49.8014 19.6148Z" fill="#315176"/>
<path d="M129.938 99.5166C129.938 101.225 105.195 100.451 74.6719 100.451C44.1488 100.451 19.4062 101.081 19.4062 99.5166C19.4062 97.6636 44.1488 98.5825 74.6719 98.5825C105.195 98.5825 129.938 97.9522 129.938 99.5166Z" fill="#315176"/>
</svg>
